<svg width="83" height="71" viewBox="0 0 83 71" fill="none" xmlns="http://www.w3.org/2000/svg">
<path fill-rule="evenodd" clip-rule="evenodd" d="M38.4622 0.0503289C30.3534 0.723066 22.8899 3.54574 16.4213 8.38588C14.1563 10.0808 10.0486 14.1885 8.3537 16.4535C3.96458 22.3193 1.37536 28.6216 0.274775 36.1182C-0.0915917 38.6137 -0.0915917 44.4637 0.274775 46.9592C1.56382 55.7388 5.25808 63.6537 10.8186 69.5492L12.048 70.8525L12.6019 69.1388C14.6693 62.7436 19.2449 56.8292 25.0223 53.0846C28.8053 50.6326 33.408 48.9825 37.9312 48.4566C39.0243 48.3295 39.9434 48.2008 39.9738 48.1702C40.0043 48.1397 39.5947 48.0704 39.0636 48.0159C37.7587 47.8822 35.7561 47.2852 34.2587 46.5835C29.1533 44.1911 25.5672 39.4207 24.6575 33.8124C23.4949 26.6433 27.1413 19.3833 33.5895 16.0286C42.9298 11.1692 54.3459 15.7803 57.6906 25.7637C60.4244 33.9236 56.5607 42.9253 48.7544 46.5835C47.257 47.2852 45.2544 47.8822 43.9495 48.0159C43.4184 48.0704 43.0089 48.1397 43.0393 48.1702C43.0697 48.2008 43.9889 48.3295 45.0819 48.4566C54.0403 49.4981 62.1236 54.5444 67.1062 62.2057C68.2736 64.0007 69.7545 67.1075 70.4112 69.1388L70.9651 70.8525L72.1945 69.5492C76.9423 64.5154 80.5927 57.4663 82.124 50.3749C82.8325 47.0936 83 45.4041 83 41.5387C83 38.8377 82.9326 37.4411 82.7383 36.1182C81.6323 28.5848 79.1063 22.4456 74.6419 16.441C72.9719 14.1949 68.8708 10.0912 66.5918 8.38588C60.8156 4.06373 54.6209 1.48505 47.3726 0.385509C45.4904 0.0999302 40.2429 -0.0974355 38.4622 0.0503289Z" fill="#D0D0D0"/>
</svg>
