<svg width="23" height="23" viewBox="0 0 23 23" fill="none" xmlns="http://www.w3.org/2000/svg">
<path fill-rule="evenodd" clip-rule="evenodd" d="M9.59734 0.153792C7.06742 0.613379 5.09177 1.6452 3.32323 3.43057C0.468606 6.31237 -0.646036 10.4432 0.367359 14.3849C1.72285 19.6566 6.603 23.258 12.022 22.9856C15.0168 22.835 17.5915 21.6898 19.6841 19.5774C21.9703 17.2694 23.1472 14.2063 22.9853 10.9856C22.7826 6.95418 20.7201 3.57501 17.1953 1.49903C15.069 0.246631 12.039 -0.289784 9.59734 0.153792ZM12.6886 5.2233C13.456 5.38594 14.9592 6.03823 14.9592 6.20859C14.9592 6.25628 14.7176 6.40878 14.4225 6.54758C13.919 6.78428 13.8603 6.78889 13.4723 6.6228C12.0897 6.03086 10.5967 6.06933 9.27989 6.73072C7.62768 7.56051 6.5507 9.26721 6.5507 11.0553C6.5507 11.4288 6.58008 11.7343 6.6159 11.7343C6.70459 11.7343 17.7987 6.1184 18.2769 5.83148L18.6574 5.60318L18.6224 6.25812L18.5875 6.91306L11.5036 10.5306C7.60752 12.5203 4.39387 14.1493 4.3622 14.1507C4.33052 14.1522 4.31128 13.8903 4.31935 13.5688C4.33294 13.0335 4.36911 12.9604 4.74841 12.7026C5.30187 12.3265 5.39851 12.1115 5.40059 11.2524C5.40681 8.60766 7.12352 6.20951 9.58121 5.41255C10.8009 5.01701 11.5109 4.9737 12.6886 5.2233ZM18.6451 8.7832C18.6451 9.36638 18.6244 9.4113 18.2907 9.54952C17.753 9.77217 17.6118 10.0888 17.5523 11.2038C17.4868 12.4348 17.3568 12.9357 16.8328 13.9768C15.7413 16.1452 13.1633 17.5137 10.8098 17.1742C9.87494 17.0393 8.91971 16.7199 8.28182 16.3288L7.88201 16.0837L8.42223 15.8092L8.96244 15.5346L9.8587 15.8356C11.6627 16.4415 13.5071 16.0378 14.8836 14.7359C15.8804 13.7932 16.4523 12.4992 16.4552 11.1795C16.4565 10.5978 16.4435 10.5709 16.1974 10.6445C16.0548 10.6871 15.3163 11.0468 14.556 11.444C11.7139 12.9285 4.50145 16.5721 4.40493 16.5722C4.28963 16.5723 4.29331 15.5687 4.40908 15.4448C4.49662 15.3511 18.4264 8.19553 18.5587 8.17618C18.6062 8.16926 18.6451 8.44237 18.6451 8.7832Z" fill="#9333EA"/>
</svg>
